<?xml version="1.0" standalone="no"?>
<!DOCTYPE svg PUBLIC "-//W3C//DTD SVG 20010904//EN"
 "http://www.w3.org/TR/2001/REC-SVG-20010904/DTD/svg10.dtd">
<svg version="1.0" xmlns="http://www.w3.org/2000/svg"
 width="40" height="40" viewBox="0 0 48.000000 48.000000"
 preserveAspectRatio="xMidYMid meet">

<g transform="translate(0.000000,48.000000) scale(0.100000,-0.100000)"
fill="currentColor" stroke="none">
<path d="M226 425 c-4 -10 -19 -15 -49 -15 -24 0 -48 -5 -55 -12 -7 -7 -12
-40 -12 -80 0 -84 6 -88 134 -88 116 0 126 7 126 86 0 79 -11 94 -66 94 -30 0
-46 5 -50 15 -4 8 -10 15 -14 15 -4 0 -10 -7 -14 -15z m114 -105 l0 -60 -100
0 -100 0 0 60 0 60 100 0 100 0 0 -60z"/>
<path d="M174 335 c-4 -9 -2 -21 4 -27 15 -15 44 -1 40 19 -4 23 -36 29 -44 8z"/>
<path d="M264 335 c-4 -9 -2 -21 4 -27 15 -15 44 -1 40 19 -4 23 -36 29 -44 8z"/>
<path d="M92 188 c-6 -6 -12 -24 -12 -38 0 -88 147 -140 250 -87 56 28 78 64
64 104 l-9 28 -140 3 c-101 2 -144 -1 -153 -10z m278 -38 c0 -30 -42 -68 -85
-76 -84 -15 -167 18 -173 69 l-3 27 130 0 c125 0 131 -1 131 -20z"/>
</g>
</svg>
