<?xml version="1.0" standalone="no"?>
<!DOCTYPE svg PUBLIC "-//W3C//DTD SVG 20010904//EN"
 "http://www.w3.org/TR/2001/REC-SVG-20010904/DTD/svg10.dtd">
<svg version="1.0" xmlns="http://www.w3.org/2000/svg"
 width="40" height="40" viewBox="0 0 512.000000 512.000000"
 preserveAspectRatio="xMidYMid meet">

<g transform="translate(0.000000,512.000000) scale(0.100000,-0.100000)"
fill="currentColor" stroke="none">
<path d="M2560 4146 c-147 -41 -267 -162 -306 -310 -8 -28 -14 -86 -14 -128
l0 -77 -947 -3 c-948 -3 -948 -3 -1006 -25 -115 -43 -214 -139 -258 -250 l-24
-58 0 -1137 0 -1138 26 -26 c16 -15 41 -28 65 -31 36 -4 58 7 307 156 l269
161 908 0 c627 0 925 3 962 11 157 33 293 170 327 327 6 29 11 84 11 122 l0
70 787 0 788 0 242 -146 c134 -80 259 -152 279 -160 48 -20 98 -4 125 40 18
30 19 64 19 1136 0 904 -3 1114 -14 1156 -40 150 -160 270 -311 310 -71 19
-2167 19 -2235 0z m2188 -208 c69 -17 136 -88 151 -159 9 -39 11 -315 9 -1021
l-3 -968 -195 118 -195 117 -817 3 -818 2 0 608 c0 650 -1 666 -51 764 -31 61
-125 150 -190 181 -30 14 -85 31 -122 37 l-67 12 0 57 c0 92 23 153 76 199 24
22 61 45 82 50 57 15 2080 15 2140 0z m-2210 -543 c47 -20 78 -50 105 -100 22
-40 22 -44 25 -810 2 -561 0 -785 -8 -824 -16 -71 -83 -142 -152 -159 -34 -9
-297 -12 -975 -12 l-928 0 -191 -115 c-106 -63 -195 -115 -198 -115 -4 0 -5
449 -4 998 l3 997 22 40 c26 49 57 79 103 99 31 13 171 15 1098 16 937 0 1067
-2 1100 -15z"/>
<path d="M3700 3623 c-8 -3 -25 -15 -37 -26 -25 -22 -463 -1107 -463 -1146 0
-32 29 -77 57 -90 36 -17 88 -13 114 8 15 12 47 72 83 160 l59 141 226 -2 226
-3 57 -135 c34 -80 68 -144 84 -157 61 -54 169 -7 168 73 0 27 -63 193 -203
534 -265 644 -252 617 -295 635 -37 16 -51 17 -76 8z m166 -725 c5 -17 -6 -18
-134 -18 l-140 0 70 176 71 176 64 -158 c35 -88 66 -167 69 -176z"/>
<path d="M1357 3075 c-191 -52 -336 -204 -382 -397 -21 -88 -21 -372 0 -453
50 -195 205 -351 395 -395 117 -28 260 -10 370 45 l45 23 45 -39 c24 -21 57
-41 72 -44 65 -15 137 59 123 125 -3 16 -24 48 -45 72 l-38 43 23 45 c51 101
60 152 60 355 0 168 -3 198 -22 260 -56 177 -200 314 -378 360 -71 18 -202 18
-268 0z m277 -229 c60 -29 113 -83 148 -148 20 -39 23 -59 26 -207 4 -165 -1
-234 -18 -260 -7 -12 -22 -2 -74 46 -36 34 -78 64 -95 68 -68 15 -141 -58
-126 -126 4 -17 33 -58 66 -93 32 -35 59 -66 59 -69 0 -12 -76 -27 -132 -27
-122 0 -233 73 -286 188 -23 50 -26 73 -30 195 -7 206 11 277 91 364 95 103
245 131 371 69z"/>
</g>
</svg>
