<?xml version="1.0" standalone="no"?>
<!DOCTYPE svg PUBLIC "-//W3C//DTD SVG 20010904//EN"
 "http://www.w3.org/TR/2001/REC-SVG-20010904/DTD/svg10.dtd">
<svg version="1.0" xmlns="http://www.w3.org/2000/svg"
 width="40" height="40" viewBox="0 0 512.000000 512.000000"
>

<g transform="translate(0.000000,512.000000) scale(0.100000,-0.100000)"
fill="currentColor">
<path d="M2524 5025 c-442 -80 -746 -377 -814 -796 l-12 -74 -106 -1 c-122 0
-195 -14 -304 -56 -285 -109 -510 -400 -535 -692 l-6 -76 -41 -11 c-77 -19
-111 -32 -171 -62 -199 -99 -344 -267 -417 -487 -31 -91 -32 -102 -32 -255 -1
-155 0 -163 32 -255 79 -229 232 -401 442 -498 87 -41 194 -72 246 -72 16 0
39 -3 52 -6 l22 -6 0 -689 c0 -441 4 -706 10 -737 13 -58 57 -115 111 -142 37
-20 63 -20 1064 -20 989 0 1027 1 1063 19 47 24 77 56 97 103 13 33 15 130 15
753 l0 715 559 0 c345 0 589 4 637 11 157 22 277 82 394 199 85 85 130 155
167 262 22 60 27 95 31 203 5 151 -8 216 -66 335 -45 94 -166 220 -260 271
l-62 34 7 45 c15 88 6 280 -16 365 -41 156 -119 290 -240 418 -166 174 -386
275 -605 278 l-75 1 -6 57 c-29 242 -105 416 -250 569 -152 161 -333 257 -559
297 -105 18 -273 18 -372 0z m378 -161 c295 -61 525 -260 620 -534 21 -62 48
-222 48 -290 0 -83 9 -88 167 -87 130 0 144 -2 232 -32 118 -40 194 -86 284
-170 118 -111 193 -234 233 -382 24 -89 25 -271 0 -361 -9 -37 -15 -77 -11
-88 4 -13 40 -36 101 -65 124 -60 196 -130 253 -247 88 -179 75 -363 -37 -536
-67 -103 -204 -195 -330 -221 -35 -7 -251 -11 -632 -11 l-580 0 0 267 0 268
-318 317 -317 318 -770 0 c-516 0 -783 -4 -809 -11 -55 -15 -120 -84 -134
-141 -8 -33 -12 -196 -12 -534 l0 -487 -57 7 c-314 37 -567 304 -589 622 -24
332 206 641 528 710 127 27 138 40 138 162 0 101 20 175 76 290 36 74 61 109
122 170 165 165 359 231 592 201 l101 -12 24 24 c20 20 26 40 34 124 14 135
33 203 86 311 159 325 563 501 957 418z m-392 -2229 c0 -230 3 -248 54 -303
48 -53 65 -57 306 -62 l225 -5 0 -998 c0 -977 0 -999 -19 -1013 -17 -12 -170
-14 -1007 -14 -884 0 -989 2 -1003 16 -14 14 -16 145 -16 1293 0 980 3 1280
12 1289 9 9 185 12 730 12 l718 0 0 -215z m305 -55 l160 -160 -143 0 c-189 0
-182 -7 -182 180 0 77 1 140 3 140 1 0 74 -72 162 -160z"/>
<path d="M3150 3700 c-158 -42 -330 -153 -330 -213 0 -14 10 -37 23 -52 18
-21 36 -27 97 -35 130 -16 246 -69 334 -155 51 -48 126 -152 126 -174 0 -5
-24 -17 -52 -26 -63 -20 -88 -46 -88 -91 0 -41 -6 -36 355 -288 181 -126 289
-196 305 -196 57 0 64 12 185 386 74 226 115 366 113 386 -2 24 -11 37 -37 52
-32 18 -35 18 -85 3 -29 -10 -59 -17 -67 -17 -8 0 -25 21 -39 47 -89 168 -254
303 -445 363 -103 33 -293 37 -395 10z m344 -166 c149 -36 304 -165 375 -314
53 -109 66 -123 113 -118 21 2 38 1 38 -2 0 -3 -32 -101 -71 -217 l-71 -213
-56 39 c-159 108 -307 213 -309 219 -2 4 10 14 26 23 41 24 46 66 17 138 -69
171 -218 324 -388 400 l-62 27 46 13 c114 32 225 34 342 5z"/>
<path d="M2024 2050 c-48 -19 -67 -77 -39 -117 15 -21 14 -23 -12 -28 -150
-33 -260 -90 -353 -185 -76 -77 -141 -193 -165 -291 -27 -115 -15 -287 22
-331 22 -25 62 -31 89 -13 40 26 45 47 33 123 -38 227 137 496 350 538 31 7
32 6 20 -20 -15 -32 -1 -67 35 -92 40 -26 69 -11 167 83 80 77 89 90 89 122 0
33 -9 46 -87 123 -91 89 -113 102 -149 88z"/>
<path d="M2590 1483 c-8 -3 -23 -13 -33 -22 -17 -14 -18 -26 -12 -116 6 -78 3
-116 -9 -164 -44 -171 -149 -290 -309 -350 -74 -27 -77 -27 -65 7 16 41 3 79
-33 98 -45 23 -72 8 -173 -95 -115 -118 -115 -122 0 -236 93 -94 115 -107 157
-93 47 17 64 83 31 119 -15 17 -14 18 12 24 99 21 126 30 192 62 178 87 313
275 343 476 15 104 -3 240 -37 274 -23 23 -36 26 -64 16z"/>
<path d="M4386 1437 c-19 -19 -24 -38 -29 -105 -16 -202 -96 -372 -238 -507
-78 -74 -106 -94 -195 -138 -95 -48 -162 -66 -277 -77 -116 -10 -137 -23 -137
-81 0 -27 7 -45 23 -60 20 -19 29 -21 112 -15 411 26 767 335 849 738 9 42 16
109 16 148 0 62 -3 74 -25 95 -30 31 -69 32 -99 2z"/>
</g>
</svg>
